# xmcd
# 
# Track frame offsets:
#     150
#     14409
#     28717
# 
# Disc length: 572
# 
# Revision: 1
# Processed by: cddbd v1.5.2PL0 Copyright (c) Steve Scherf et al.
# Submitted via: fre:ac v1.0.31
# 
DISCID=1b023a03
DTITLE=Calm - Ancient future - relax edition -
DYEAR=2003
DGENRE=
TTITLE0=Dreams of Skeleton Tree
TTITLE1=The Teachings of nature
TTITLE2=Utopia ＆ visions
EXTD=
EXTT0=
EXTT1=
EXTT2=
PLAYORDER=
